<?xml version="1.0" encoding="UTF-8"?>
<!DOCTYPE svg PUBLIC "-//W3C//DTD SVG 1.1//EN" "http://www.w3.org/Graphics/SVG/1.1/DTD/svg11.dtd">
<svg xmlns="http://www.w3.org/2000/svg" version="1.1" width="512px" height="512px" style="shape-rendering:geometricPrecision; text-rendering:geometricPrecision; image-rendering:optimizeQuality; fill-rule:evenodd; clip-rule:evenodd" xmlns:xlink="http://www.w3.org/1999/xlink">
<g><path style="opacity:0.979" fill="#020202" d="M 231.5,-0.5 C 241.833,-0.5 252.167,-0.5 262.5,-0.5C 276.494,1.78153 289.161,7.28153 300.5,16C 317.946,17.6117 334.946,21.2784 351.5,27C 358.526,29.5952 365.026,33.0952 371,37.5C 372.735,40.7897 372.901,44.123 371.5,47.5C 368.66,50.1428 365.327,50.9761 361.5,50C 348.516,42.1709 334.516,37.0042 319.5,34.5C 317.712,33.3775 315.712,33.2109 313.5,34C 317.501,41.3154 320.001,49.1487 321,57.5C 321.204,64.2289 321.37,70.8955 321.5,77.5C 333.275,81.8859 344.275,87.5526 354.5,94.5C 356.5,96.671 358.334,99.0043 360,101.5C 366.822,124.455 373.489,147.455 380,170.5C 384.703,145.007 388.203,119.341 390.5,93.5C 390.564,89.0811 390.064,84.7478 389,80.5C 386.507,74.8428 383.507,69.5095 380,64.5C 379.403,61.3188 379.903,58.3188 381.5,55.5C 385.524,53.9093 389.357,54.2427 393,56.5C 403.86,69.9352 408.194,85.2686 406,102.5C 402.878,123.854 399.711,145.187 396.5,166.5C 407.622,167.818 415.788,173.485 421,183.5C 429.948,202.194 432.948,221.861 430,242.5C 428.858,255.935 424.191,267.935 416,278.5C 413.836,291.329 409.503,303.329 403,314.5C 392.839,325.231 380.339,331.398 365.5,333C 362.376,337.414 359.376,341.914 356.5,346.5C 364.181,347.236 371.848,348.069 379.5,349C 386.941,350.303 393.108,353.803 398,359.5C 401.354,364.207 404.187,369.207 406.5,374.5C 423.48,377.645 432.48,387.812 433.5,405C 432.899,409.857 431.566,414.524 429.5,419C 440.593,423.034 451.26,428.034 461.5,434C 484.472,453.447 495.972,478.281 496,508.5C 494.955,509.373 494.122,510.373 493.5,511.5C 490.5,511.5 487.5,511.5 484.5,511.5C 482.15,509.787 481.15,507.453 481.5,504.5C 477.187,464.03 455.187,440.197 415.5,433C 402.555,441.612 389.889,450.612 377.5,460C 369.463,463.601 365.296,461.101 365,452.5C 366.122,450.376 367.622,448.543 369.5,447C 383.167,437.333 396.833,427.667 410.5,418C 413.094,415.914 415.094,413.414 416.5,410.5C 419.592,401.185 416.592,394.685 407.5,391C 403.101,390.183 398.768,389.183 394.5,388C 392.254,381.609 389.42,375.442 386,369.5C 382.17,365.893 377.67,364.06 372.5,364C 356.4,400.804 340.4,437.637 324.5,474.5C 323.054,476.704 322.22,479.037 322,481.5C 329.5,476 337,470.5 344.5,465C 355.651,461.484 359.318,465.15 355.5,476C 342.078,485.032 329.078,494.532 316.5,504.5C 313.319,506.592 310.319,508.925 307.5,511.5C 304.833,511.5 302.167,511.5 299.5,511.5C 297.331,509.66 295.998,507.326 295.5,504.5C 309.348,471.968 323.348,439.468 337.5,407C 335.419,404.448 332.752,402.615 329.5,401.5C 328.603,400.402 327.77,400.402 327,401.5C 309.615,430.902 287.782,456.735 261.5,479C 257.426,482.226 253.426,482.226 249.5,479C 222.125,454.153 199.125,425.986 180.5,394.5C 179.705,387.913 179.205,381.246 179,374.5C 175.464,371.299 172.297,367.799 169.5,364C 164.5,363.333 159.5,363.333 154.5,364C 159.737,375.635 165.07,387.135 170.5,398.5C 185.519,433.909 200.519,469.242 215.5,504.5C 215.002,507.326 213.669,509.66 211.5,511.5C 208.833,511.5 206.167,511.5 203.5,511.5C 200.681,508.925 197.681,506.592 194.5,504.5C 162.588,480.532 130.255,457.032 97.5,434C 91.8054,432.395 86.4721,433.228 81.5,436.5C 74.7863,438.36 68.453,441.026 62.5,444.5C 47.9518,454.582 38.1185,468.248 33,485.5C 31.1852,491.723 30.0186,498.056 29.5,504.5C 29.8504,507.453 28.8504,509.787 26.5,511.5C 23.5,511.5 20.5,511.5 17.5,511.5C 16.8783,510.373 16.045,509.373 15,508.5C 15.0284,478.281 26.5284,453.447 49.5,434C 59.7405,428.034 70.4071,423.034 81.5,419C 74.3655,402.07 78.3655,388.404 93.5,378C 97.1414,376.731 100.808,375.564 104.5,374.5C 107.775,365.774 113.109,358.608 120.5,353C 131.338,348.416 142.671,346.416 154.5,347C 141.609,328.677 132.776,308.51 128,286.5C 114.798,292.105 103.465,289.439 94,278.5C 85.1405,265.587 80.4738,251.254 80,235.5C 79.0887,221.19 80.7553,207.19 85,193.5C 87.8966,190.769 91.3966,189.769 95.5,190.5C 97.7393,192.477 99.0726,194.977 99.5,198C 94.0135,217.895 94.1802,237.728 100,257.5C 102.355,263.843 106.189,269.009 111.5,273C 117.685,275.002 122.185,273.169 125,267.5C 125.83,240.664 125.664,213.997 124.5,187.5C 122.345,182.253 118.678,180.586 113.5,182.5C 111.801,182.62 110.135,182.954 108.5,183.5C 106.004,182.749 103.67,181.749 101.5,180.5C 99.7656,170.559 104.099,165.892 114.5,166.5C 110.467,142.436 107.134,118.27 104.5,94C 104.383,81.6845 107.883,70.5178 115,60.5C 128.548,44.6192 144.715,32.1192 163.5,23C 184.945,11.2419 207.612,3.4086 231.5,-0.5 Z M 382.5,286.5 C 386.859,288.755 391.526,289.755 396.5,289.5C 394.38,302.447 387.047,310.28 374.5,313C 378.018,304.43 380.685,295.596 382.5,286.5 Z"/></g>
<g><path style="opacity:1" fill="#fcce63" d="M 305.5,56.5 C 305.5,57.5 305.5,58.5 305.5,59.5C 296.816,58.2595 288.15,56.9262 279.5,55.5C 279.167,55.5 278.833,55.5 278.5,55.5C 276.817,51.3085 274.15,47.8085 270.5,45C 265.583,42.7916 260.916,40.2916 256.5,37.5C 254.804,32.9781 251.471,30.9781 246.5,31.5C 232.647,32.5056 220.314,37.3389 209.5,46C 203.231,51.7628 197.564,57.9295 192.5,64.5C 179.976,67.5105 169.143,73.5105 160,82.5C 157.901,86.2314 156.734,90.2314 156.5,94.5C 154.5,96.671 152.666,99.0043 151,101.5C 147.352,114.917 143.519,128.251 139.5,141.5C 137.596,134.062 136.096,126.395 135,118.5C 132.836,101.857 131.003,85.19 129.5,68.5C 133.603,62.5619 138.603,57.3952 144.5,53C 171.206,33.5377 200.873,20.8711 233.5,15C 250.95,13.016 267.617,15.6827 283.5,23C 295.973,30.7752 303.306,41.9419 305.5,56.5 Z"/></g>
<g><path style="opacity:0.999" fill="#fdce63" d="M 319.5,34.5 C 334.516,37.0042 348.516,42.1709 361.5,50C 365.327,50.9761 368.66,50.1428 371.5,47.5C 375.146,49.8171 378.48,52.4838 381.5,55.5C 379.903,58.3188 379.403,61.3188 380,64.5C 383.507,69.5095 386.507,74.8428 389,80.5C 390.064,84.7478 390.564,89.0811 390.5,93.5C 388.203,119.341 384.703,145.007 380,170.5C 373.489,147.455 366.822,124.455 360,101.5C 358.334,99.0043 356.5,96.671 354.5,94.5C 353.664,86.4752 349.997,79.9752 343.5,75C 339.167,72.8333 334.833,70.6667 330.5,68.5C 329.818,55.6391 325.151,44.4725 316.5,35C 317.448,34.5172 318.448,34.3505 319.5,34.5 Z"/></g>
<g><path style="opacity:1" fill="#e7ad43" d="M 319.5,34.5 C 318.448,34.3505 317.448,34.5172 316.5,35C 325.151,44.4725 329.818,55.6391 330.5,68.5C 334.833,70.6667 339.167,72.8333 343.5,75C 349.997,79.9752 353.664,86.4752 354.5,94.5C 344.275,87.5526 333.275,81.8859 321.5,77.5C 321.37,70.8955 321.204,64.2289 321,57.5C 320.001,49.1487 317.501,41.3154 313.5,34C 315.712,33.2109 317.712,33.3775 319.5,34.5 Z"/></g>
<g><path style="opacity:1" fill="#e6ac42" d="M 256.5,37.5 C 260.916,40.2916 265.583,42.7916 270.5,45C 274.15,47.8085 276.817,51.3085 278.5,55.5C 259.455,53.9223 240.455,54.2557 221.5,56.5C 224.256,53.6109 227.589,51.4442 231.5,50C 239.086,47.6471 246.753,45.8138 254.5,44.5C 256.171,42.4902 256.838,40.1569 256.5,37.5 Z"/></g>
<g><path style="opacity:1" fill="#e18423" d="M 278.5,55.5 C 278.833,55.5 279.167,55.5 279.5,55.5C 280.503,60.1727 281.503,64.8394 282.5,69.5C 280.193,70.7633 278.859,72.7633 278.5,75.5C 272.84,75.5108 267.507,74.5108 262.5,72.5C 261.746,69.909 260.079,68.0757 257.5,67C 254.167,66.8333 250.833,66.6667 247.5,66.5C 233.276,67.1942 219.276,69.0275 205.5,72C 210.041,65.9582 215.374,60.7916 221.5,56.5C 240.455,54.2557 259.455,53.9223 278.5,55.5 Z"/></g>
<g><path style="opacity:1" fill="#e0a841" d="M 279.5,55.5 C 288.15,56.9262 296.816,58.2595 305.5,59.5C 305.5,58.5 305.5,57.5 305.5,56.5C 306.488,61.6405 306.821,66.9738 306.5,72.5C 298.588,70.8484 290.588,69.8484 282.5,69.5C 281.503,64.8394 280.503,60.1727 279.5,55.5 Z"/></g>
<g><path style="opacity:1" fill="#e7ad43" d="M 192.5,64.5 C 189.638,69.7211 186.638,74.8877 183.5,80C 173.841,83.8262 164.841,88.6595 156.5,94.5C 156.734,90.2314 157.901,86.2314 160,82.5C 169.143,73.5105 179.976,67.5105 192.5,64.5 Z"/></g>
<g><path style="opacity:1" fill="#e7ad43" d="M 129.5,68.5 C 131.003,85.19 132.836,101.857 135,118.5C 136.096,126.395 137.596,134.062 139.5,141.5C 136.572,151.119 133.739,160.786 131,170.5C 127.747,148.14 124.414,125.807 121,103.5C 118.8,91.6736 120.8,80.6736 127,70.5C 127.708,69.6195 128.542,68.9528 129.5,68.5 Z"/></g>
<g><path style="opacity:1" fill="#fdcbbc" d="M 262.5,72.5 C 267.507,74.5108 272.84,75.5108 278.5,75.5C 278.724,79.5616 280.724,82.395 284.5,84C 307.127,86.5379 327.627,94.3712 346,107.5C 354,134.833 362,162.167 370,189.5C 370.667,212.5 370.667,235.5 370,258.5C 369.006,279.309 364.173,299.142 355.5,318C 341.54,319.221 327.54,319.888 313.5,320C 308.776,322.435 307.276,326.269 309,331.5C 309.833,332.333 310.667,333.167 311.5,334C 322.833,334.333 334.167,334.667 345.5,335C 330.875,355.959 313.208,373.959 292.5,389C 262.616,405.213 234.616,402.713 208.5,381.5C 196.758,368.252 185.925,354.252 176,339.5C 163.279,318.238 155.945,295.238 154,270.5C 153.5,229.835 153.333,189.168 153.5,148.5C 156.817,134.713 160.65,121.046 165,107.5C 182.241,95.1914 201.407,87.3581 222.5,84C 234.47,82.633 246.47,81.633 258.5,81C 261.821,79.1881 263.155,76.3547 262.5,72.5 Z"/></g>
<g><path style="opacity:1" fill="#070505" d="M 180.5,148.5 C 200.295,146.351 219.295,149.185 237.5,157C 242.726,161.251 242.726,165.585 237.5,170C 236.167,170.167 234.833,170.333 233.5,170.5C 227.435,168.979 221.435,167.146 215.5,165C 204.206,163.508 192.872,163.174 181.5,164C 175.978,165.063 170.644,166.73 165.5,169C 157.212,170.291 154.045,166.791 156,158.5C 156.833,157.667 157.667,156.833 158.5,156C 165.632,152.56 172.965,150.06 180.5,148.5 Z"/></g>
<g><path style="opacity:1" fill="#060504" d="M 298.5,148.5 C 315.554,147.16 332.221,148.993 348.5,154C 355.693,156.67 357.36,161.336 353.5,168C 351.966,168.923 350.299,169.423 348.5,169.5C 332.616,163.891 316.283,162.058 299.5,164C 292.972,165.398 286.639,167.398 280.5,170C 274.243,171.743 270.576,169.41 269.5,163C 269.99,160.497 271.323,158.497 273.5,157C 281.68,153.381 290.014,150.547 298.5,148.5 Z"/></g>
<g><path style="opacity:1" fill="#e7ab9b" d="M 153.5,148.5 C 153.333,189.168 153.5,229.835 154,270.5C 155.945,295.238 163.279,318.238 176,339.5C 185.925,354.252 196.758,368.252 208.5,381.5C 185.005,362.845 166.505,340.179 153,313.5C 145.946,296.9 141.946,279.567 141,261.5C 140.333,237.5 140.333,213.5 141,189.5C 144.725,175.576 148.891,161.91 153.5,148.5 Z"/></g>
<g><path style="opacity:0.998" fill="#756d77" d="M 101.5,180.5 C 103.67,181.749 106.004,182.749 108.5,183.5C 110.135,182.954 111.801,182.62 113.5,182.5C 113.333,206.836 113.5,231.169 114,255.5C 116.079,259.957 119.579,261.957 124.5,261.5C 124.5,236.833 124.5,212.167 124.5,187.5C 125.664,213.997 125.83,240.664 125,267.5C 122.185,273.169 117.685,275.002 111.5,273C 106.189,269.009 102.355,263.843 100,257.5C 94.1802,237.728 94.0135,217.895 99.5,198C 99.0726,194.977 97.7393,192.477 95.5,190.5C 96.9855,186.863 98.9855,183.53 101.5,180.5 Z"/></g>
<g><path style="opacity:1" fill="#a199a4" d="M 124.5,187.5 C 124.5,212.167 124.5,236.833 124.5,261.5C 119.579,261.957 116.079,259.957 114,255.5C 113.5,231.169 113.333,206.836 113.5,182.5C 118.678,180.586 122.345,182.253 124.5,187.5 Z"/></g>
<g><path style="opacity:1" fill="#756c77" d="M 397.5,182.5 C 397.333,206.502 397.5,230.502 398,254.5C 400.093,259.116 403.593,261.449 408.5,261.5C 405.427,270.096 399.427,273.929 390.5,273C 387.898,272.065 386.398,270.232 386,267.5C 385.333,240.833 385.333,214.167 386,187.5C 388.426,182.366 392.259,180.7 397.5,182.5 Z"/></g>
<g><path style="opacity:1" fill="#050404" d="M 249.5,183.5 C 263.177,181.749 272.011,187.416 276,200.5C 279.667,213.833 283.333,227.167 287,240.5C 288.62,248.352 286.953,255.352 282,261.5C 264.303,277.444 246.636,277.444 229,261.5C 224.047,255.352 222.38,248.352 224,240.5C 228.209,223.877 233.209,207.544 239,191.5C 241.94,187.963 245.44,185.297 249.5,183.5 Z"/></g>
<g><path style="opacity:1" fill="#9e96a1" d="M 397.5,182.5 C 401.702,183.863 404.869,186.53 407,190.5C 414.742,205.952 417.408,222.285 415,239.5C 414.312,247.387 412.145,254.72 408.5,261.5C 403.593,261.449 400.093,259.116 398,254.5C 397.5,230.502 397.333,206.502 397.5,182.5 Z"/></g>
<g><path style="opacity:1" fill="#070505" d="M 203.5,185.5 C 207.954,184.617 211.454,185.95 214,189.5C 214.667,197.167 214.667,204.833 214,212.5C 211.487,216.212 207.987,217.378 203.5,216C 201.951,214.786 200.785,213.286 200,211.5C 199.333,204.5 199.333,197.5 200,190.5C 200.997,188.677 202.164,187.01 203.5,185.5 Z"/></g>
<g><path style="opacity:1" fill="#070505" d="M 300.5,185.5 C 305.439,184.352 308.939,186.019 311,190.5C 311.667,197.5 311.667,204.5 311,211.5C 308.928,216.143 305.428,217.643 300.5,216C 298.667,215.5 297.5,214.333 297,212.5C 296.333,204.833 296.333,197.167 297,189.5C 298.032,187.973 299.199,186.64 300.5,185.5 Z"/></g>
<g><path style="opacity:1" fill="#e6aa99" d="M 252.5,198.5 C 256.49,197.616 259.323,198.949 261,202.5C 265.07,216.946 268.903,231.446 272.5,246C 272.131,249.39 270.465,252.057 267.5,254C 256.67,260.977 247.17,259.477 239,249.5C 238.833,248.333 238.667,247.167 238.5,246C 242.018,229.749 246.684,213.916 252.5,198.5 Z"/></g>
<g><path style="opacity:1" fill="#060504" d="M 196.5,281.5 C 199.564,281.144 202.231,281.977 204.5,284C 207.887,291.762 213.721,295.929 222,296.5C 224.167,296.333 226.333,296.167 228.5,296C 232.816,294.253 236.983,292.42 241,290.5C 245.227,293.274 249.894,295.274 255,296.5C 259.678,296.387 263.512,294.554 266.5,291C 267.667,290.833 268.833,290.667 270,290.5C 274.313,291.904 278.48,293.738 282.5,296C 289.124,297.459 295.124,296.293 300.5,292.5C 303.083,290.083 305.083,287.249 306.5,284C 313.034,279.858 317.368,281.525 319.5,289C 312.716,306.902 299.716,314.235 280.5,311C 277.124,309.93 273.79,308.764 270.5,307.5C 260.348,312.748 250.181,312.748 240,307.5C 222.266,315.666 207.266,312.333 195,297.5C 191.596,293.497 190.929,289.164 193,284.5C 194.518,283.837 195.685,282.837 196.5,281.5 Z"/></g>
<g><path style="opacity:1" fill="#080706" d="M 230.5,330.5 C 238.254,331.949 246.088,332.949 254,333.5C 262.898,332.75 271.732,331.917 280.5,331C 284.934,334.267 285.6,338.267 282.5,343C 270.315,348.106 257.648,349.773 244.5,348C 238.592,347.316 233.092,345.483 228,342.5C 225.523,337.669 226.356,333.669 230.5,330.5 Z"/></g>
<g><path style="opacity:1" fill="#5ca2e6" d="M 180.5,394.5 C 177.167,395.833 173.833,397.167 170.5,398.5C 165.07,387.135 159.737,375.635 154.5,364C 159.5,363.333 164.5,363.333 169.5,364C 172.297,367.799 175.464,371.299 179,374.5C 179.205,381.246 179.705,387.913 180.5,394.5 Z"/></g>
<g><path style="opacity:1" fill="#5ca1e6" d="M 341.5,363.5 C 346.511,363.334 351.511,363.501 356.5,364C 352.561,373.511 348.061,382.678 343,391.5C 339.439,389.97 335.939,388.303 332.5,386.5C 331.34,382.541 331.173,378.541 332,374.5C 335.75,371.256 338.917,367.589 341.5,363.5 Z"/></g>
<g><path style="opacity:1" fill="#d0ecfa" d="M 177.5,454.5 C 153.225,437.353 128.892,420.186 104.5,403C 101.619,400.721 99.6194,397.888 98.5,394.5C 99.343,392.827 100.676,391.66 102.5,391C 107.201,390.072 111.868,389.072 116.5,388C 118.746,381.609 121.58,375.442 125,369.5C 128.696,365.565 133.196,363.732 138.5,364C 151.917,393.998 164.917,424.165 177.5,454.5 Z"/></g>
<g><path style="opacity:1" fill="#d1edfb" d="M 416.5,410.5 C 414.217,410.608 412.217,411.441 410.5,413C 381.951,433.764 353.284,454.264 324.5,474.5C 340.4,437.637 356.4,400.804 372.5,364C 377.67,364.06 382.17,365.893 386,369.5C 389.42,375.442 392.254,381.609 394.5,388C 398.768,389.183 403.101,390.183 407.5,391C 416.592,394.685 419.592,401.185 416.5,410.5 Z"/></g>
<g><path style="opacity:1" fill="#fbcabb" d="M 218.5,423.5 C 230.018,423.974 241.684,423.474 253.5,422C 265.768,419.529 277.101,415.029 287.5,408.5C 297.551,403.967 306.718,397.967 315,390.5C 314.968,392.598 314.301,394.598 313,396.5C 297.591,421.935 278.424,444.268 255.5,463.5C 241.773,451.316 229.44,437.983 218.5,423.5 Z"/></g>
<g><path style="opacity:1" fill="#8fd7f6" d="M 98.5,394.5 C 99.6194,397.888 101.619,400.721 104.5,403C 128.892,420.186 153.225,437.353 177.5,454.5C 181.897,463.29 185.73,472.29 189,481.5C 157.719,459.22 126.719,436.553 96,413.5C 93.6261,409.106 92.9595,404.44 94,399.5C 94.9959,397.34 96.4959,395.673 98.5,394.5 Z"/></g>
<g><path style="opacity:1" fill="#e6aa9a" d="M 287.5,408.5 C 277.101,415.029 265.768,419.529 253.5,422C 241.684,423.474 230.018,423.974 218.5,423.5C 209.849,413.71 202.683,403.043 197,391.5C 223.746,414.83 253.913,420.497 287.5,408.5 Z"/></g>
<g><path style="opacity:0.992" fill="#fcebe2" d="M 180.5,394.5 C 199.125,425.986 222.125,454.153 249.5,479C 253.426,482.226 257.426,482.226 261.5,479C 287.782,456.735 309.615,430.902 327,401.5C 327.77,400.402 328.603,400.402 329.5,401.5C 314.845,435.787 300.178,470.12 285.5,504.5C 262.167,504.5 238.833,504.5 215.5,504.5C 200.519,469.242 185.519,433.909 170.5,398.5C 173.833,397.167 177.167,395.833 180.5,394.5 Z"/></g>
<g><path style="opacity:0.994" fill="#fadacb" d="M 329.5,401.5 C 332.752,402.615 335.419,404.448 337.5,407C 323.348,439.468 309.348,471.968 295.5,504.5C 292.167,504.5 288.833,504.5 285.5,504.5C 300.178,470.12 314.845,435.787 329.5,401.5 Z"/></g>
<g><path style="opacity:1" fill="#90d8f8" d="M 416.5,410.5 C 415.094,413.414 413.094,415.914 410.5,418C 396.833,427.667 383.167,437.333 369.5,447C 367.622,448.543 366.122,450.376 365,452.5C 365.296,461.101 369.463,463.601 377.5,460C 389.889,450.612 402.555,441.612 415.5,433C 455.187,440.197 477.187,464.03 481.5,504.5C 426.5,504.5 371.5,504.5 316.5,504.5C 329.078,494.532 342.078,485.032 355.5,476C 359.318,465.15 355.651,461.484 344.5,465C 337,470.5 329.5,476 322,481.5C 322.22,479.037 323.054,476.704 324.5,474.5C 353.284,454.264 381.951,433.764 410.5,413C 412.217,411.441 414.217,410.608 416.5,410.5 Z"/></g>
<g><path style="opacity:0.992" fill="#5ea4ea" d="M 194.5,504.5 C 188.5,504.5 182.5,504.5 176.5,504.5C 152.016,486.197 127.349,468.03 102.5,450C 95.7831,444.98 88.7831,440.48 81.5,436.5C 86.4721,433.228 91.8054,432.395 97.5,434C 130.255,457.032 162.588,480.532 194.5,504.5 Z"/></g>
<g><path style="opacity:1" fill="#90d9f9" d="M 81.5,436.5 C 88.7831,440.48 95.7831,444.98 102.5,450C 127.349,468.03 152.016,486.197 176.5,504.5C 131.833,504.5 87.1667,504.5 42.5,504.5C 44.0364,482.767 50.703,462.767 62.5,444.5C 68.453,441.026 74.7863,438.36 81.5,436.5 Z"/></g>
<g><path style="opacity:0.988" fill="#5da4e9" d="M 62.5,444.5 C 50.703,462.767 44.0364,482.767 42.5,504.5C 38.1667,504.5 33.8333,504.5 29.5,504.5C 30.0186,498.056 31.1852,491.723 33,485.5C 38.1185,468.248 47.9518,454.582 62.5,444.5 Z"/></g>
</svg>
