<?xml version="1.0" encoding="UTF-8"?>
<svg version="1.1" xmlns="http://www.w3.org/2000/svg" width="492" height="221">
<path d="M0 0 C162.36 0 324.72 0 492 0 C492 72.93 492 145.86 492 221 C329.64 221 167.28 221 0 221 C0 148.07 0 75.14 0 0 Z " fill="#FEFEFE" transform="translate(0,0)"/>
<path d="M0 0 C2.48373841 1.05582893 2.99297169 2.01344482 4.21118164 4.39453125 C4.59081055 5.10867187 4.97043945 5.8228125 5.36157227 6.55859375 C5.7437793 7.30882812 6.12598633 8.0590625 6.51977539 8.83203125 C7.28326712 10.31567794 8.05505009 11.79509555 8.83618164 13.26953125 C9.17206299 13.92824219 9.50794434 14.58695313 9.85400391 15.265625 C10.95783121 17.16194639 10.95783121 17.16194639 13.95727539 17.83203125 C14.42907227 16.98318359 14.42907227 16.98318359 14.91040039 16.1171875 C15.33836914 15.38371094 15.76633789 14.65023437 16.20727539 13.89453125 C16.62493164 13.16363281 17.04258789 12.43273437 17.47290039 11.6796875 C19.21321156 9.51345807 20.25288543 9.19608374 22.95727539 8.83203125 C26.51493797 12.64082296 27.3488546 17.19947614 28.70727539 22.08203125 C30.59762361 28.47102754 32.21727235 33.06705011 37.12915039 37.72265625 C39.61334907 40.58903934 41.01352243 43.85332523 42.58227539 47.26953125 C45.98079611 54.567543 50.35471502 60.58146686 55.36083984 66.85888672 C59.3285969 71.87270482 62.56669102 76.8629034 64.95727539 82.83203125 C63.39988798 82.4426844 61.84250787 82.05330833 60.28515625 81.66381836 C58.87462597 81.31131009 57.46397728 80.95927538 56.05322266 80.60766602 C52.02229406 79.60221602 47.99394258 78.58773994 43.96899414 77.55859375 C42.2776491 77.12866538 40.58624261 76.69897869 38.89477539 76.26953125 C38.0560791 76.05466064 37.21738281 75.83979004 36.35327148 75.6184082 C32.39126757 74.62041362 28.45156647 73.70550772 24.42211914 73.0234375 C23.72803955 72.90363525 23.03395996 72.78383301 22.31884766 72.66040039 C20.459456 72.35305348 18.59516069 72.07579741 16.73071289 71.80078125 C13.95727539 70.83203125 13.95727539 70.83203125 12.61352539 68.5546875 C11.98856046 65.96182705 11.48163759 63.40613678 11.08227539 60.76953125 C10.28087449 56.57615444 9.48653579 54.45376755 5.95727539 51.83203125 C4.59602539 50.71828125 4.59602539 50.71828125 3.20727539 49.58203125 C2.46477539 49.00453125 1.72227539 48.42703125 0.95727539 47.83203125 C1.34931197 42.8631955 3.91544129 40.28358032 7.26977539 36.89453125 C10.98432531 33.08158266 14.12241473 29.35030085 16.95727539 24.83203125 C16.02786133 25.03699219 15.09844727 25.24195312 14.14086914 25.453125 C12.9046582 25.72253906 11.66844727 25.99195312 10.39477539 26.26953125 C9.17661133 26.53636719 7.95844727 26.80320312 6.70336914 27.078125 C3.12088382 27.79910484 -0.42231963 28.35210626 -4.04272461 28.83203125 C-4.04272461 24.54203125 -4.04272461 20.25203125 -4.04272461 15.83203125 C-13.57923428 16.53248071 -13.57923428 16.53248071 -21.98022461 20.39453125 C-25.29816689 22.70703648 -29.08377707 22.58671185 -33.04272461 22.83203125 C-33.26959961 23.69828125 -33.49647461 24.56453125 -33.73022461 25.45703125 C-36.55704611 32.72600083 -42.17372277 36.69199566 -48.31420898 41.04296875 C-52.18788778 43.88819715 -54.46846684 46.81462897 -57.04272461 50.83203125 C-61.89263611 53.85178747 -66.78564945 55.39252906 -72.23022461 57.08203125 C-77.44438036 58.71209896 -81.74770687 60.68589937 -86.35522461 63.70703125 C-91.60682153 67.14479731 -96.88098341 69.621081 -102.73022461 71.89453125 C-103.52146729 72.20567871 -104.31270996 72.51682617 -105.12792969 72.83740234 C-107.07537781 73.57000468 -109.05731403 74.20961242 -111.04272461 74.83203125 C-111.70272461 74.50203125 -112.36272461 74.17203125 -113.04272461 73.83203125 C-101.14590807 66.87717693 -89.38914823 60.12899871 -76.64428711 54.8359375 C-63.78036969 49.39698294 -54.95003997 41.1859668 -45.6730957 31.07861328 C-39.25529969 24.1279241 -34.15857101 19.86345459 -24.94360352 16.87158203 C-20.91437024 15.42767736 -18.22318909 13.25557953 -15.16772461 10.33203125 C-14.08961105 9.3670201 -13.01019751 8.40345918 -11.92944336 7.44140625 C-10.97682617 6.5803125 -10.02420898 5.71921875 -9.04272461 4.83203125 C-2.95485408 -0.24297115 -2.95485408 -0.24297115 0 0 Z " fill="#035993" transform="translate(267.042724609375,21.16796875)"/>
<path d="M0 0 C0.99 0.99 0.99 0.99 2 2 C-0.22481229 2.70146314 -2.45507368 3.38565954 -4.6875 4.0625 C-5.92886719 4.44535156 -7.17023438 4.82820313 -8.44921875 5.22265625 C-13.38511759 6.30323256 -17.08331164 5.04376619 -21.81640625 3.546875 C-22.73486328 3.25981689 -23.65332031 2.97275879 -24.59960938 2.67700195 C-25.57736328 2.37109131 -26.55511719 2.06518066 -27.5625 1.75 C-45.86833182 -3.87468887 -64.09049481 -7.96593541 -83 -11 C-82.33282959 -10.77973145 -81.66565918 -10.55946289 -80.97827148 -10.33251953 C-68.49306605 -6.1825196 -56.14133668 -1.85601526 -44.0625 3.375 C-43.09304443 3.79120605 -42.12358887 4.20741211 -41.12475586 4.63623047 C-33.80830149 7.86970981 -33.80830149 7.86970981 -31 11 C-34.70511299 12.01219846 -38.41454857 13.007566 -42.125 14 C-43.17171875 14.28617188 -44.2184375 14.57234375 -45.296875 14.8671875 C-46.31523437 15.13789062 -47.33359375 15.40859375 -48.3828125 15.6875 C-49.31496582 15.93886719 -50.24711914 16.19023438 -51.20751953 16.44921875 C-56.72991434 17.53844088 -60.27980026 17.26635036 -65.16796875 14.4375 C-66.13420166 13.8914209 -67.10043457 13.3453418 -68.09594727 12.78271484 C-69.11615967 12.19441895 -70.13637207 11.60612305 -71.1875 11 C-78.68797433 6.81821388 -86.16434362 2.75885782 -94.0625 -0.625 C-94.74916748 -0.93050781 -95.43583496 -1.23601562 -96.14331055 -1.55078125 C-112.08150958 -8.16783793 -129.00494395 -7.53363811 -145.9375 -7.6875 C-148.47072015 -7.72073159 -151.00392406 -7.75522648 -153.53710938 -7.79101562 C-159.69129472 -7.87524489 -165.84549755 -7.94386908 -172 -8 C-168.32417539 -10.45054974 -164.7601358 -11.09864121 -160.5 -11.9375 C-159.63576416 -12.10934814 -158.77152832 -12.28119629 -157.88110352 -12.45825195 C-146.02059438 -14.70010768 -134.00522744 -15.8347587 -122 -17 C-120.58098389 -17.14574463 -120.58098389 -17.14574463 -119.13330078 -17.29443359 C-80.68447134 -21.09092322 -36.00902328 -14.76217374 0 0 Z " fill="#085C95" transform="translate(336,110)"/>
<path d="M0 0 C2.00389649 -0.01705751 4.00750702 -0.06092163 6.01098633 -0.10522461 C13.46911636 -0.15411805 18.71921699 0.07478866 24.97387695 4.29516602 C29.17047397 9.56781355 30.42089181 13.58994316 29.97387695 20.29516602 C28.31612631 25.442918 26.55546534 28.35825039 21.97387695 31.29516602 C21.31387695 31.29516602 20.65387695 31.29516602 19.97387695 31.29516602 C20.31233643 31.79443604 20.6507959 32.29370605 20.99951172 32.80810547 C22.52255579 35.06758955 24.02955332 37.33733614 25.53637695 39.60766602 C26.33591797 40.78619141 26.33591797 40.78619141 27.15161133 41.98852539 C27.65112305 42.74584961 28.15063477 43.50317383 28.6652832 44.28344727 C29.13135986 44.97994385 29.59743652 45.67644043 30.07763672 46.39404297 C30.97387695 48.29516602 30.97387695 48.29516602 29.97387695 51.29516602 C26.29031694 52.42374611 23.61642511 52.6529797 19.97387695 51.29516602 C18.0131676 48.84869879 16.61824464 46.12559511 15.16137695 43.35766602 C12.09453303 37.32176278 12.09453303 37.32176278 6.4543457 34.01000977 C3.19353402 33.81570354 0.20659349 33.84927408 -3.02612305 34.29516602 C-3.01452148 35.43856445 -3.00291992 36.58196289 -2.9909668 37.76000977 C-2.98159017 39.25089356 -2.97248983 40.7417791 -2.96362305 42.23266602 C-2.95524414 42.98741211 -2.94686523 43.7421582 -2.93823242 44.51977539 C-2.92959864 46.44510915 -2.97387972 48.37052182 -3.02612305 50.29516602 C-4.02612305 51.29516602 -4.02612305 51.29516602 -5.83862305 51.42797852 C-6.56049805 51.42540039 -7.28237305 51.42282227 -8.02612305 51.42016602 C-8.74799805 51.42274414 -9.46987305 51.42532227 -10.21362305 51.42797852 C-12.02612305 51.29516602 -12.02612305 51.29516602 -13.02612305 50.29516602 C-13.27913543 46.15554319 -13.21134853 42.00410605 -13.21362305 37.85766602 C-13.22586914 36.68655273 -13.23811523 35.51543945 -13.25073242 34.30883789 C-13.25266602 33.19186523 -13.25459961 32.07489258 -13.2565918 30.92407227 C-13.26070068 29.89354736 -13.26480957 28.86302246 -13.26904297 27.80126953 C-13.02612305 25.29516602 -13.02612305 25.29516602 -11.02612305 23.29516602 C-8.35229492 22.9921875 -8.35229492 22.9921875 -4.99487305 22.91625977 C-3.19083008 22.86501953 -3.19083008 22.86501953 -1.3503418 22.81274414 C-0.08834961 22.78631836 1.17364258 22.75989258 2.47387695 22.73266602 C4.96356053 22.67290344 7.45315584 22.60929997 9.94262695 22.54125977 C11.60455078 22.50536743 11.60455078 22.50536743 13.30004883 22.46875 C15.94634226 22.47073763 15.94634226 22.47073763 17.97387695 21.29516602 C18.06668945 19.37704102 18.06668945 19.37704102 18.16137695 17.42016602 C18.19618164 16.70086914 18.23098633 15.98157227 18.2668457 15.24047852 C18.17016602 14.59852539 18.07348633 13.95657227 17.97387695 13.29516602 C14.48602808 10.96993343 12.9384264 11.00953293 8.80981445 10.91625977 C7.60583008 10.88209961 6.4018457 10.84793945 5.16137695 10.81274414 C3.27418945 10.77310547 3.27418945 10.77310547 1.34887695 10.73266602 C-1.14341356 10.67302363 -3.63561409 10.60944412 -6.12768555 10.54125977 C-7.23450684 10.51733154 -8.34132813 10.49340332 -9.48168945 10.46875 C-12.02612305 10.29516602 -12.02612305 10.29516602 -13.02612305 9.29516602 C-13.15893555 7.48266602 -13.15893555 7.48266602 -13.15112305 5.29516602 C-13.15370117 4.57329102 -13.1562793 3.85141602 -13.15893555 3.10766602 C-12.78226646 -2.0327592 -3.84155842 0.0227476 0 0 Z " fill="#085C95" transform="translate(449.026123046875,153.704833984375)"/>
<path d="M0 0 C2.27864583 0.06510417 4.55729167 0.13020833 6.8359375 0.1953125 C11.72839758 9.6918866 16.21618198 19.30283441 20.40039062 29.13085938 C21.3520002 31.35790392 22.3204363 33.57718751 23.2890625 35.796875 C23.89947262 37.22351588 24.50888684 38.65058339 25.1171875 40.078125 C25.55133972 41.06403122 25.55133972 41.06403122 25.9942627 42.06985474 C27.57987712 45.8540565 27.87192 47.05138251 26.8359375 51.1953125 C10.3359375 51.1953125 -6.1640625 51.1953125 -23.1640625 51.1953125 C-22.1640625 45.1953125 -22.1640625 45.1953125 -21.1640625 42.1953125 C-18.20595774 40.71626012 -15.209347 41.07340347 -11.96875 41.09765625 C-11.26130646 41.0990712 -10.55386292 41.10048615 -9.82498169 41.10194397 C-7.56296581 41.1075465 -5.30104852 41.12009932 -3.0390625 41.1328125 C-1.50651185 41.13782718 0.02604036 41.14239014 1.55859375 41.14648438 C5.31774638 41.15751673 9.07682522 41.17478298 12.8359375 41.1953125 C11.19410625 37.21448268 9.5468075 33.23593873 7.8984375 29.2578125 C7.42986328 28.12150391 6.96128906 26.98519531 6.47851562 25.81445312 C6.03056641 24.73486328 5.58261719 23.65527344 5.12109375 22.54296875 C4.70738525 21.54273682 4.29367676 20.54250488 3.86743164 19.51196289 C3.03892458 17.27884975 3.03892458 17.27884975 1.8359375 16.1953125 C1.5685376 16.82622803 1.3011377 17.45714355 1.02563477 18.10717773 C-0.1809325 20.950124 -1.39119602 23.79148178 -2.6015625 26.6328125 C-3.02244141 27.62603516 -3.44332031 28.61925781 -3.87695312 29.64257812 C-4.27978516 30.58681641 -4.68261719 31.53105469 -5.09765625 32.50390625 C-5.46947021 33.37845459 -5.84128418 34.25300293 -6.22436523 35.15405273 C-7.1640625 37.1953125 -7.1640625 37.1953125 -8.1640625 38.1953125 C-10.83465101 38.33646411 -13.48838488 38.23778357 -16.1640625 38.1953125 C-17.69181304 33.50137862 -16.38361478 30.31882623 -14.48828125 25.99609375 C-14.20306107 25.31983444 -13.91784088 24.64357513 -13.62397766 23.94682312 C-13.02054772 22.52303283 -12.41080191 21.10190484 -11.79516602 19.68334961 C-10.85257268 17.51014153 -9.92964646 15.32938984 -9.00976562 13.14648438 C-8.42040101 11.76253899 -7.82994333 10.37905848 -7.23828125 8.99609375 C-6.96110764 8.34401443 -6.68393402 7.69193512 -6.39836121 7.02009583 C-3.47606836 0.31372458 -3.47606836 0.31372458 0 0 Z " fill="#075B95" transform="translate(219.1640625,153.8046875)"/>
<path d="M0 0 C1.47906892 -0.02689216 2.95827483 -0.04634621 4.4375 -0.0625 C5.26121094 -0.07410156 6.08492187 -0.08570313 6.93359375 -0.09765625 C9 0 9 0 10 1 C10.09839214 2.5293463 10.12798539 4.06319566 10.12939453 5.59570312 C10.13254669 6.57341675 10.13569885 7.55113037 10.13894653 8.55847168 C10.1369223 9.62198853 10.13489807 10.68550537 10.1328125 11.78125 C10.13376923 12.86506958 10.13472595 13.94888916 10.13571167 15.06555176 C10.13639365 17.3622239 10.13453811 19.65889795 10.13037109 21.95556641 C10.12502312 25.48474428 10.1303155 29.01379487 10.13671875 32.54296875 C10.13605797 34.76822945 10.13477682 36.99349007 10.1328125 39.21875 C10.13483673 40.28226685 10.13686096 41.34578369 10.13894653 42.44152832 C10.13421829 43.90809875 10.13421829 43.90809875 10.12939453 45.40429688 C10.12859894 46.26953979 10.12780334 47.13478271 10.12698364 48.02624512 C10 50 10 50 9 51 C6.03 51 3.06 51 0 51 C0 44.4 0 37.8 0 31 C-7.59 31 -15.18 31 -23 31 C-23 37.6 -23 44.2 -23 51 C-25.97 51 -28.94 51 -32 51 C-34.75551511 48.24448489 -33.18568203 39.78025429 -33.1875 36.0625 C-33.19974609 34.74830078 -33.21199219 33.43410156 -33.22460938 32.08007812 C-33.22750977 30.2015918 -33.22750977 30.2015918 -33.23046875 28.28515625 C-33.23457764 27.12894775 -33.23868652 25.97273926 -33.24291992 24.78149414 C-33 22 -33 22 -31 20 C-28.01904297 19.77294922 -28.01904297 19.77294922 -24.2421875 19.8046875 C-23.24761032 19.80893234 -23.24761032 19.80893234 -22.23294067 19.81326294 C-20.11344417 19.82446565 -17.99436896 19.84956949 -15.875 19.875 C-14.43880818 19.88502972 -13.00260975 19.89415559 -11.56640625 19.90234375 C-8.04413372 19.924405 -4.52210797 19.95893506 -1 20 C-1.01160156 18.72382813 -1.02320312 17.44765625 -1.03515625 16.1328125 C-1.04453417 14.46354313 -1.05363437 12.79427217 -1.0625 11.125 C-1.07087891 10.28324219 -1.07925781 9.44148437 -1.08789062 8.57421875 C-1.09272461 7.36572266 -1.09272461 7.36572266 -1.09765625 6.1328125 C-1.10551147 5.01737061 -1.10551147 5.01737061 -1.11352539 3.87939453 C-1 2 -1 2 0 0 Z " fill="#0A5D96" transform="translate(98,154)"/>
<path d="M0 0 C1.22460938 -0.020625 2.44921875 -0.04125 3.7109375 -0.0625 C11.88192406 -0.09787224 17.2902539 0.22288108 23.6875 5.625 C27.50611307 10.20733568 28.33774667 14.10928345 28.19140625 19.97265625 C27.50858218 24.8873036 25.01674627 28.16680483 21.4375 31.5625 C15.76929626 35.29521953 11.17120253 35.51061663 4.5625 35.375 C3.72654297 35.36597656 2.89058594 35.35695312 2.02929688 35.34765625 C-0.02225969 35.32420989 -2.07366777 35.28834266 -4.125 35.25 C-4.11339844 36.32121094 -4.10179687 37.39242187 -4.08984375 38.49609375 C-4.08046701 39.89322743 -4.07136669 41.29036299 -4.0625 42.6875 C-4.05412109 43.39455078 -4.04574219 44.10160156 -4.03710938 44.83007812 C-4.02846412 46.63693559 -4.07279989 48.44387603 -4.125 50.25 C-5.125 51.25 -5.125 51.25 -6.9375 51.3828125 C-7.659375 51.38023437 -8.38125 51.37765625 -9.125 51.375 C-9.846875 51.37757813 -10.56875 51.38015625 -11.3125 51.3828125 C-13.125 51.25 -13.125 51.25 -14.125 50.25 C-14.22446453 48.48140807 -14.25580217 46.70888549 -14.2578125 44.9375 C-14.25910156 43.86242187 -14.26039062 42.78734375 -14.26171875 41.6796875 C-14.25591797 39.98199219 -14.25591797 39.98199219 -14.25 38.25 C-14.25386719 37.11820313 -14.25773438 35.98640625 -14.26171875 34.8203125 C-14.26042969 33.74523437 -14.25914063 32.67015625 -14.2578125 31.5625 C-14.25668457 30.56863281 -14.25555664 29.57476562 -14.25439453 28.55078125 C-14.125 26.25 -14.125 26.25 -13.125 25.25 C-11.24575863 25.14060823 -9.36278597 25.09413214 -7.48046875 25.07421875 C-5.75280273 25.03844727 -5.75280273 25.03844727 -3.99023438 25.00195312 C-1.55030477 24.95919281 0.88985279 24.9278296 3.33007812 24.90820312 C4.48572266 24.88048828 5.64136719 24.85277344 6.83203125 24.82421875 C8.42494995 24.80234497 8.42494995 24.80234497 10.05004883 24.7800293 C13.55075672 24.12321166 14.77551967 23.09185201 16.875 20.25 C16.96416154 16.62350049 16.96416154 16.62350049 15.875 13.25 C12.43592311 10.95728207 10.98865895 10.96639347 6.9296875 10.87109375 C5.77082031 10.83693359 4.61195312 10.80277344 3.41796875 10.76757812 C2.20753906 10.74115234 0.99710938 10.71472656 -0.25 10.6875 C-2.64854445 10.62785366 -5.04699545 10.56427333 -7.4453125 10.49609375 C-8.51023926 10.47216553 -9.57516602 10.4482373 -10.67236328 10.42358398 C-13.125 10.25 -13.125 10.25 -14.125 9.25 C-14.2578125 7.4375 -14.2578125 7.4375 -14.25 5.25 C-14.25257812 4.528125 -14.25515625 3.80625 -14.2578125 3.0625 C-13.87427899 -2.17160442 -3.87025239 0.01599278 0 0 Z " fill="#055A94" transform="translate(24.125,153.75)"/>
<path d="M0 0 C1.72766602 -0.05607422 1.72766602 -0.05607422 3.49023438 -0.11328125 C12.06981779 -0.20087768 19.0739817 1.17411305 25.50170898 7.18994141 C31.72967184 13.91376428 32.01449938 20.70540444 31.8046875 29.484375 C31.33321075 37.05842085 28.97589063 41.53108985 23.57421875 46.83203125 C18.72783282 50.54916221 14.70865946 51.74862159 8.6328125 51.66796875 C7.34375 51.65830078 6.0546875 51.64863281 4.7265625 51.63867188 C3.38020214 51.61361188 2.03384797 51.58821712 0.6875 51.5625 C-0.68227705 51.54743504 -2.05207002 51.53374982 -3.421875 51.52148438 C-6.76082358 51.48621379 -10.09895675 51.43691896 -13.4375 51.375 C-13.4375 48.405 -13.4375 45.435 -13.4375 42.375 C-12.77741943 42.36041748 -12.11733887 42.34583496 -11.43725586 42.33081055 C-8.41594603 42.25585388 -5.39568405 42.15935194 -2.375 42.0625 C-0.81749023 42.02866211 -0.81749023 42.02866211 0.77148438 41.99414062 C8.00209687 41.74164305 13.61077037 41.25104426 19 36 C21.50955301 30.17783701 21.93940472 23.34372536 19.83203125 17.26953125 C17.72283666 13.78290346 15.31375997 12.59108635 11.5625 11.375 C8.78078896 11.03017893 8.78078896 11.03017893 5.859375 10.99609375 C4.7971875 10.96193359 3.735 10.92777344 2.640625 10.89257812 C1.54234375 10.86615234 0.4440625 10.83972656 -0.6875 10.8125 C-2.88032541 10.75285718 -5.07304854 10.68927753 -7.265625 10.62109375 C-8.7182373 10.58520142 -8.7182373 10.58520142 -10.20019531 10.54858398 C-12.4375 10.375 -12.4375 10.375 -13.4375 9.375 C-13.5703125 7.5625 -13.5703125 7.5625 -13.5625 5.375 C-13.56507813 4.653125 -13.56765625 3.93125 -13.5703125 3.1875 C-13.19279441 -1.96451163 -3.82476856 0.04570609 0 0 Z " fill="#045993" transform="translate(335.4375,153.625)"/>
<path d="M0 0 C3.59551892 -0.62778902 5.54275994 -0.91174166 9 0 C12.64072672 3.16667376 15.26148694 7.06022701 18 11 C18.86862602 12.20230754 19.73978077 13.40279167 20.61328125 14.6015625 C22.69970245 17.47904206 24.75460837 20.37681447 26.79492188 23.28710938 C28.84659039 26.20333837 30.92474244 29.10052668 33 32 C33.03758423 30.59923218 33.03758423 30.59923218 33.07592773 29.17016602 C33.17086928 25.71674811 33.27011258 22.2635104 33.37231445 18.81030273 C33.41571813 17.31360731 33.45738913 15.81686061 33.49731445 14.32006836 C33.55488616 12.17285688 33.61861716 10.02590479 33.68359375 7.87890625 C33.72025146 6.5854126 33.75690918 5.29191895 33.79467773 3.95922852 C34 1 34 1 35 0 C36.8125 -0.1328125 36.8125 -0.1328125 39 -0.125 C39.721875 -0.12757813 40.44375 -0.13015625 41.1875 -0.1328125 C43 0 43 0 44 1 C44.09839214 2.5293463 44.12798539 4.06319566 44.12939453 5.59570312 C44.13254669 6.57341675 44.13569885 7.55113037 44.13894653 8.55847168 C44.1369223 9.62198853 44.13489807 10.68550537 44.1328125 11.78125 C44.13376923 12.86506958 44.13472595 13.94888916 44.13571167 15.06555176 C44.13639365 17.3622239 44.13453811 19.65889795 44.13037109 21.95556641 C44.12502312 25.48474428 44.1303155 29.01379487 44.13671875 32.54296875 C44.13605797 34.76822945 44.13477682 36.99349007 44.1328125 39.21875 C44.13483673 40.28226685 44.13686096 41.34578369 44.13894653 42.44152832 C44.13421829 43.90809875 44.13421829 43.90809875 44.12939453 45.40429688 C44.12859894 46.26953979 44.12780334 47.13478271 44.12698364 48.02624512 C44 50 44 50 43 51 C39.89147085 51.60082888 37.10350934 51.64152906 34 51 C31.29561386 48.9769983 29.6114273 46.41623027 27.75 43.625 C26.93547363 42.48381714 26.93547363 42.48381714 26.10449219 41.31958008 C24.9596929 39.71116671 23.82741162 38.09377911 22.70703125 36.46826172 C20.491993 33.26545326 18.20199792 30.12037288 15.90966797 26.97265625 C14.27407932 24.72065423 12.65600503 22.45681789 11.0390625 20.19140625 C9.12788173 17.52918833 7.17636813 14.91419297 5.1484375 12.33984375 C4.71885742 11.79046143 4.28927734 11.2410791 3.84667969 10.67504883 C2.71265745 9.23621846 1.56394876 7.80899652 0.4140625 6.3828125 C-1 4 -1 4 -0.7265625 1.6796875 C-0.36691406 0.84824219 -0.36691406 0.84824219 0 0 Z " fill="#035993" transform="translate(260,154)"/>
<path d="M0 0 C0.721875 0.00257813 1.44375 0.00515625 2.1875 0.0078125 C2.909375 0.00523437 3.63125 0.00265625 4.375 0 C6.1875 0.1328125 6.1875 0.1328125 7.1875 1.1328125 C7.28589214 2.6621588 7.31548539 4.19600816 7.31689453 5.72851562 C7.32004669 6.70622925 7.32319885 7.68394287 7.32644653 8.69128418 C7.3244223 9.75480103 7.32239807 10.81831787 7.3203125 11.9140625 C7.32126923 12.99788208 7.32222595 14.08170166 7.32321167 15.19836426 C7.32389365 17.4950364 7.32203811 19.79171045 7.31787109 22.08837891 C7.31252312 25.61755678 7.3178155 29.14660737 7.32421875 32.67578125 C7.32355797 34.90104195 7.32227682 37.12630257 7.3203125 39.3515625 C7.32233673 40.41507935 7.32436096 41.47859619 7.32644653 42.57434082 C7.32329437 43.55205444 7.32014221 44.52976807 7.31689453 45.53710938 C7.31570114 46.83497375 7.31570114 46.83497375 7.31448364 48.15905762 C7.1875 50.1328125 7.1875 50.1328125 6.1875 51.1328125 C4.66821962 51.20461214 3.14582518 51.21673257 1.625 51.1953125 C0.79871094 51.18628906 -0.02757812 51.17726562 -0.87890625 51.16796875 C-1.51699219 51.15636719 -2.15507812 51.14476562 -2.8125 51.1328125 C-2.83776787 44.03036251 -2.85533201 36.92792402 -2.86743164 29.82543945 C-2.87247349 27.40714078 -2.87930678 24.98884517 -2.88793945 22.57055664 C-2.90001157 19.10301967 -2.90572963 15.63552284 -2.91015625 12.16796875 C-2.91531754 11.07944107 -2.92047882 9.99091339 -2.92579651 8.86940002 C-2.92587204 7.86843796 -2.92594757 6.86747589 -2.92602539 5.83618164 C-2.928246 4.95015762 -2.93046661 4.06413361 -2.93275452 3.15126038 C-2.77798278 0.55344789 -2.60037713 0.19054488 0 0 Z " fill="#065B94" transform="translate(155.8125,153.8671875)"/>
<path d="M0 0 C0.99 0.495 0.99 0.495 2 1 C1.0625 3.375 1.0625 3.375 -1 6 C-4.54715491 7.29282752 -8.22139519 8 -12 8 C-12.226875 8.86625 -12.45375 9.7325 -12.6875 10.625 C-15.5143215 17.89396958 -21.13099816 21.85996441 -27.27148438 26.2109375 C-31.14516317 29.0561659 -33.42574223 31.98259772 -36 36 C-40.8499115 39.01975622 -45.74292484 40.56049781 -51.1875 42.25 C-56.40165575 43.88006771 -60.70498226 45.85386812 -65.3125 48.875 C-70.56409692 52.31276606 -75.8382588 54.78904975 -81.6875 57.0625 C-82.47874268 57.37364746 -83.26998535 57.68479492 -84.08520508 58.00537109 C-86.0326532 58.73797343 -88.01458942 59.37758117 -90 60 C-90.66 59.67 -91.32 59.34 -92 59 C-80.10318346 52.04514568 -68.34642362 45.29696746 -55.6015625 40.00390625 C-42.73764508 34.56495169 -33.90731536 26.35393555 -24.63037109 16.24658203 C-17.29829015 8.30569149 -11.49436956 4.22919351 -1 1 C-0.67 0.67 -0.34 0.34 0 0 Z " fill="#116299" transform="translate(246,36)"/>
<path d="M0 0 C0.77085937 0.00091141 1.54171875 0.00182281 2.3359375 0.00276184 C3.12742187 -0.00152328 3.91890625 -0.00580841 4.734375 -0.01022339 C6.40884443 -0.01596989 8.08333882 -0.01646459 9.7578125 -0.01213074 C12.32595162 -0.0089692 14.8929408 -0.03243001 17.4609375 -0.05778503 C19.08593604 -0.06005777 20.71093769 -0.06076164 22.3359375 -0.05973816 C23.49222656 -0.07355278 23.49222656 -0.07355278 24.671875 -0.08764648 C26.8359375 -0.06877136 26.8359375 -0.06877136 30.3359375 0.30354309 C32.90281117 4.15385359 32.16882474 5.88924072 31.3359375 10.30354309 C25.94246762 10.32819159 20.54903025 10.3463784 15.15551758 10.35847473 C13.31924875 10.36351541 11.48298396 10.37034786 9.64672852 10.37898254 C7.01317349 10.39105981 4.37967134 10.3967739 1.74609375 10.40119934 C0.50703026 10.40894127 0.50703026 10.40894127 -0.75706482 10.4168396 C-2.72642618 10.41703514 -4.69567864 10.36558461 -6.6640625 10.30354309 C-7.6640625 9.30354309 -7.6640625 9.30354309 -7.8515625 5.86604309 C-7.54279794 -0.00048354 -5.32638781 0.07109412 0 0 Z " fill="#0E6098" transform="translate(389.6640625,194.6964569091797)"/>
<path d="M0 0 C0.80103149 0.00202423 1.60206299 0.00404846 2.42736816 0.00613403 C3.24483521 0.00517731 4.06230225 0.00422058 4.90454102 0.00323486 C6.63627194 0.00255308 8.3680054 0.00440724 10.09973145 0.00857544 C12.75978298 0.01392374 15.41966566 0.00863041 18.07971191 0.00222778 C19.75809771 0.00288857 21.43648339 0.00416973 23.11486816 0.00613403 C23.91589966 0.0041098 24.71693115 0.00208557 25.54223633 0 C31.15616738 0.02399575 31.15616738 0.02399575 32.27111816 1.13894653 C32.40393066 2.95144653 32.40393066 2.95144653 32.39611816 5.13894653 C32.39998535 6.22175903 32.39998535 6.22175903 32.40393066 7.32644653 C32.27111816 9.13894653 32.27111816 9.13894653 31.27111816 10.13894653 C28.54387538 10.23994141 25.84249293 10.27865182 23.11486816 10.27175903 C21.8886676 10.27319412 21.8886676 10.27319412 20.63769531 10.2746582 C18.90596439 10.27533999 17.17423092 10.27348583 15.44250488 10.26931763 C12.78245334 10.26396932 10.12257066 10.26926265 7.46252441 10.27566528 C5.78413862 10.2750045 4.10575294 10.27372334 2.42736816 10.27175903 C1.62633667 10.27378326 0.82530518 10.2758075 0 10.27789307 C-5.61393105 10.25389732 -5.61393105 10.25389732 -6.72888184 9.13894653 C-6.86169434 7.32644653 -6.86169434 7.32644653 -6.85388184 5.13894653 C-6.85645996 4.41707153 -6.85903809 3.69519653 -6.86169434 2.95144653 C-6.56291364 -1.1260312 -3.35674391 0.0143478 0 0 Z " fill="#025892" transform="translate(388.7288818359375,153.86105346679688)"/>
<path d="M0 0 C1.47583955 0.0001591 2.95168467 0.00585225 4.42749023 0.01586914 C5.20293686 0.01728409 5.97838348 0.01869904 6.77732849 0.02015686 C9.26361893 0.02577194 11.74982059 0.03832693 14.23608398 0.05102539 C15.91772331 0.05603845 17.59936405 0.06060169 19.28100586 0.06469727 C23.41189965 0.07574626 27.54272674 0.09302094 31.67358398 0.11352539 C31.70047615 1.59259431 31.7199302 3.07180022 31.73608398 4.55102539 C31.74768555 5.37473633 31.75928711 6.19844727 31.77124023 7.04711914 C31.67358398 9.11352539 31.67358398 9.11352539 30.67358398 10.11352539 C28.24865026 10.21438193 25.85282737 10.25324871 23.42749023 10.24633789 C22.70117905 10.24729462 21.97486786 10.24825134 21.22654724 10.24923706 C19.68732619 10.24991883 18.14810228 10.24806476 16.60888672 10.24389648 C14.24952741 10.23855582 11.89035915 10.24383754 9.53100586 10.25024414 C8.0381669 10.24958321 6.54532805 10.24830173 5.05249023 10.24633789 C3.9899276 10.24937424 3.9899276 10.24937424 2.90589905 10.25247192 C-2.09650173 10.22848253 -2.09650173 10.22848253 -4.32641602 9.11352539 C-4.42407227 2.96118164 -4.42407227 2.96118164 -4.32641602 1.11352539 C-3.32641602 0.11352539 -3.32641602 0.11352539 0 0 Z " fill="#085C95" transform="translate(386.326416015625,174.886474609375)"/>
<path d="M0 0 C2.97 0 5.94 0 9 0 C9 9.9 9 19.8 9 30 C6.03 30 3.06 30 0 30 C-1.83034055 28.16965945 -1.13042797 25.26788008 -1.1328125 22.8125 C-1.13410156 21.55695313 -1.13539062 20.30140625 -1.13671875 19.0078125 C-1.13462402 18.35071289 -1.1325293 17.69361328 -1.13037109 17.01660156 C-1.12502234 15.00838665 -1.13031691 13.00039541 -1.13671875 10.9921875 C-1.13542969 9.73664063 -1.13414063 8.48109375 -1.1328125 7.1875 C-1.13112061 5.44533203 -1.13112061 5.44533203 -1.12939453 3.66796875 C-1 1 -1 1 0 0 Z " fill="#005792" transform="translate(126,175)"/>
<path d="M0 0 C6.93 0 13.86 0 21 0 C21 2.97 21 5.94 21 9 C17.68744674 9.02683436 14.37510817 9.0467578 11.0625 9.0625 C10.11697266 9.07087891 9.17144531 9.07925781 8.19726562 9.08789062 C6.84858398 9.09272461 6.84858398 9.09272461 5.47265625 9.09765625 C4.64000244 9.10289307 3.80734863 9.10812988 2.94946289 9.11352539 C1 9 1 9 0 8 C0 5.36 0 2.72 0 0 Z " fill="#045993" transform="translate(167,196)"/>
<path d="M0 0 C0.721875 0.00257813 1.44375 0.00515625 2.1875 0.0078125 C2.909375 0.00523437 3.63125 0.00265625 4.375 0 C6.1875 0.1328125 6.1875 0.1328125 7.1875 1.1328125 C7.28731214 3.8101263 7.32629875 6.45585425 7.3125 9.1328125 C7.31636719 9.88304687 7.32023438 10.63328125 7.32421875 11.40625 C7.31411053 17.00620197 7.31411053 17.00620197 6.1875 18.1328125 C4.375 18.265625 4.375 18.265625 2.1875 18.2578125 C1.465625 18.26039063 0.74375 18.26296875 0 18.265625 C-1.8125 18.1328125 -1.8125 18.1328125 -2.8125 17.1328125 C-2.91231214 14.4554987 -2.95129875 11.80977075 -2.9375 9.1328125 C-2.94136719 8.38257813 -2.94523437 7.63234375 -2.94921875 6.859375 C-2.9372257 0.21522775 -2.9372257 0.21522775 0 0 Z " fill="#065A94" transform="translate(127.8125,153.8671875)"/>
<path d="M0 0 C0.721875 0.00257813 1.44375 0.00515625 2.1875 0.0078125 C2.909375 0.00523437 3.63125 0.00265625 4.375 0 C6.1875 0.1328125 6.1875 0.1328125 7.1875 1.1328125 C7.28731214 3.8101263 7.32629875 6.45585425 7.3125 9.1328125 C7.31636719 9.88304687 7.32023437 10.63328125 7.32421875 11.40625 C7.31411053 17.00620197 7.31411053 17.00620197 6.1875 18.1328125 C4.375 18.265625 4.375 18.265625 2.1875 18.2578125 C1.465625 18.26039063 0.74375 18.26296875 0 18.265625 C-1.8125 18.1328125 -1.8125 18.1328125 -2.8125 17.1328125 C-2.91231214 14.4554987 -2.95129875 11.80977075 -2.9375 9.1328125 C-2.94136719 8.38257813 -2.94523437 7.63234375 -2.94921875 6.859375 C-2.9372257 0.21522775 -2.9372257 0.21522775 0 0 Z " fill="#055A94" transform="translate(67.8125,153.8671875)"/>
<path d="M0 0 C3.46679688 0.04882812 3.46679688 0.04882812 6.93359375 0.09765625 C6.93359375 5.70765625 6.93359375 11.31765625 6.93359375 17.09765625 C0 17.1953125 0 17.1953125 -2.06640625 17.09765625 C-3.82200567 15.34205683 -3.19862544 13.06183183 -3.203125 10.7265625 C-3.19925781 10.02402344 -3.19539063 9.32148438 -3.19140625 8.59765625 C-3.19527344 7.89511719 -3.19914062 7.19257813 -3.203125 6.46875 C-3.19095169 0.15080112 -3.19095169 0.15080112 0 0 Z " fill="#075B95" transform="translate(262.06640625,187.90234375)"/>
<path d="M0 0 C2.49114223 0.62053825 4.80343597 0.75133442 7.36816406 0.85571289 C8.83769531 0.91855469 8.83769531 0.91855469 10.33691406 0.98266602 C11.35269531 1.02198242 12.36847656 1.06129883 13.41503906 1.10180664 C14.96191406 1.16658203 14.96191406 1.16658203 16.54003906 1.23266602 C19.08157776 1.33856346 21.62321103 1.44064107 24.16503906 1.53930664 C24.16503906 1.86930664 24.16503906 2.19930664 24.16503906 2.53930664 C12.94503906 2.53930664 1.72503906 2.53930664 -9.83496094 2.53930664 C-6.60453266 0.38568779 -3.90752129 -0.98103947 0 0 Z " fill="#3C7EAB" transform="translate(173.8349609375,99.460693359375)"/>
<path d="M0 0 C0.66 0.33 1.32 0.66 2 1 C-0.75 5.875 -0.75 5.875 -3 7 C-6.5 7.1875 -6.5 7.1875 -10 7 C-10.66 6.34 -11.32 5.68 -12 5 C-10.82630859 4.58427734 -10.82630859 4.58427734 -9.62890625 4.16015625 C-8.61699219 3.79792969 -7.60507813 3.43570313 -6.5625 3.0625 C-5.55316406 2.70285156 -4.54382813 2.34320313 -3.50390625 1.97265625 C-1.09686255 1.23122361 -1.09686255 1.23122361 0 0 Z " fill="#2B73A4" transform="translate(246,36)"/>
<path d="M0 0 C4.62 0.66 9.24 1.32 14 2 C13.67 2.99 13.34 3.98 13 5 C11.20620902 4.55005243 9.41501072 4.08975857 7.625 3.625 C6.62726563 3.36976562 5.62953125 3.11453125 4.6015625 2.8515625 C2 2 2 2 0 0 Z " fill="#C1D6E4" transform="translate(251,98)"/>
</svg>
