<?xml version="1.0" encoding="UTF-8"?>
<!DOCTYPE svg PUBLIC "-//W3C//DTD SVG 1.1//EN" "http://www.w3.org/Graphics/SVG/1.1/DTD/svg11.dtd">
<svg xmlns="http://www.w3.org/2000/svg" version="1.1" width="512px" height="512px" style="shape-rendering:geometricPrecision; text-rendering:geometricPrecision; image-rendering:optimizeQuality; fill-rule:evenodd; clip-rule:evenodd" xmlns:xlink="http://www.w3.org/1999/xlink">
<g><path style="opacity:0.989" fill="#463b84" d="M 241.5,-0.5 C 252.167,-0.5 262.833,-0.5 273.5,-0.5C 334.408,9.04681 376.574,42.3801 400,99.5C 405.832,115.996 408.832,132.996 409,150.5C 409.5,169.164 409.667,187.83 409.5,206.5C 403.778,202.306 397.445,199.139 390.5,197C 383.842,196.5 377.175,196.334 370.5,196.5C 372.607,195.532 374.941,195.198 377.5,195.5C 377.667,175.164 377.5,154.831 377,134.5C 367.167,73.0075 333.334,30.8409 275.5,8C 264.158,4.7041 252.825,1.87077 241.5,-0.5 Z"/></g>
<g><path style="opacity:0.998" fill="#6354b1" d="M 238.5,-0.5 C 239.5,-0.5 240.5,-0.5 241.5,-0.5C 252.825,1.87077 264.158,4.7041 275.5,8C 333.334,30.8409 367.167,73.0075 377,134.5C 377.5,154.831 377.667,175.164 377.5,195.5C 374.941,195.198 372.607,195.532 370.5,196.5C 370.5,202.833 370.5,209.167 370.5,215.5C 358.432,215.831 346.432,215.164 334.5,213.5C 278.168,201.318 248.001,166.318 244,108.5C 243.342,98.8143 243.508,89.1477 244.5,79.5C 198.676,85.165 166.509,109.165 148,151.5C 143.439,162.742 140.939,174.409 140.5,186.5C 139.523,189.287 139.19,192.287 139.5,195.5C 134.637,195.181 129.97,195.514 125.5,196.5C 117.246,197.295 109.912,200.295 103.5,205.5C 103.077,179.469 103.577,153.469 105,127.5C 116.8,68.7058 150.633,28.5391 206.5,7C 217.147,3.83619 227.814,1.33619 238.5,-0.5 Z"/></g>
<g><path style="opacity:1" fill="#feddcd" d="M 334.5,213.5 C 334.667,238.169 334.5,262.836 334,287.5C 326.295,338.538 297.795,371.704 248.5,387C 243.898,388.122 239.232,388.622 234.5,388.5C 223.635,386.767 213.302,383.434 203.5,378.5C 165.235,357.535 144.235,325.202 140.5,281.5C 140.5,278.167 140.5,274.833 140.5,271.5C 140.5,246.5 140.5,221.5 140.5,196.5C 140.5,193.167 140.5,189.833 140.5,186.5C 140.939,174.409 143.439,162.742 148,151.5C 166.509,109.165 198.676,85.165 244.5,79.5C 243.508,89.1477 243.342,98.8143 244,108.5C 248.001,166.318 278.168,201.318 334.5,213.5 Z"/></g>
<g><path style="opacity:1" fill="#4a3e85" d="M 194.5,177.5 C 202.426,176.966 210.093,178.133 217.5,181C 222.364,185.035 222.698,189.368 218.5,194C 216.966,194.923 215.299,195.423 213.5,195.5C 209.45,194.149 205.283,193.483 201,193.5C 195.816,194.237 190.649,194.737 185.5,195C 181.251,191.623 180.418,187.457 183,182.5C 186.723,180.324 190.556,178.657 194.5,177.5 Z"/></g>
<g><path style="opacity:1" fill="#8d70af" d="M 140.5,186.5 C 140.5,189.833 140.5,193.167 140.5,196.5C 135.5,196.5 130.5,196.5 125.5,196.5C 129.97,195.514 134.637,195.181 139.5,195.5C 139.19,192.287 139.523,189.287 140.5,186.5 Z"/></g>
<g><path style="opacity:0.992" fill="#feac9b" d="M 125.5,196.5 C 130.5,196.5 135.5,196.5 140.5,196.5C 140.5,221.5 140.5,246.5 140.5,271.5C 134.833,271.5 129.167,271.5 123.5,271.5C 116.623,270.542 110.29,268.209 104.5,264.5C 88.4243,248.235 86.2576,230.235 98,210.5C 99.7038,208.627 101.537,206.96 103.5,205.5C 109.912,200.295 117.246,197.295 125.5,196.5 Z"/></g>
<g><path style="opacity:0.992" fill="#feab9b" d="M 370.5,196.5 C 377.175,196.334 383.842,196.5 390.5,197C 397.445,199.139 403.778,202.306 409.5,206.5C 422.371,222.027 423.871,238.694 414,256.5C 411.63,259.039 409.13,261.372 406.5,263.5C 401.018,268.071 394.685,270.738 387.5,271.5C 381.833,271.5 376.167,271.5 370.5,271.5C 370.5,252.833 370.5,234.167 370.5,215.5C 370.5,209.167 370.5,202.833 370.5,196.5 Z"/></g>
<g><path style="opacity:1" fill="#feccbb" d="M 334.5,213.5 C 346.432,215.164 358.432,215.831 370.5,215.5C 370.5,234.167 370.5,252.833 370.5,271.5C 370.5,274.833 370.5,278.167 370.5,281.5C 370.002,286.152 369.669,290.819 369.5,295.5C 366.423,307.357 362.423,319.023 357.5,330.5C 345.068,350.932 328.402,366.932 307.5,378.5C 284.111,389.652 259.778,392.985 234.5,388.5C 239.232,388.622 243.898,388.122 248.5,387C 297.795,371.704 326.295,338.538 334,287.5C 334.5,262.836 334.667,238.169 334.5,213.5 Z"/></g>
<g><path style="opacity:1" fill="#4d4086" d="M 197.5,219.5 C 202.635,218.426 206.468,220.093 209,224.5C 209.667,230.833 209.667,237.167 209,243.5C 203.858,251.408 198.858,251.408 194,243.5C 193.333,237.167 193.333,230.833 194,224.5C 194.997,222.677 196.164,221.01 197.5,219.5 Z"/></g>
<g><path style="opacity:1" fill="#483d85" d="M 304.5,219.5 C 306.857,219.337 309.19,219.503 311.5,220C 313.333,220.5 314.5,221.667 315,223.5C 315.667,230.833 315.667,238.167 315,245.5C 309.359,251.304 304.692,250.637 301,243.5C 300.333,236.833 300.333,230.167 301,223.5C 302.376,222.295 303.542,220.962 304.5,219.5 Z"/></g>
<g><path style="opacity:0.96" fill="#fed404" d="M 31.5,281.5 C 33.0324,278.943 34.6991,276.443 36.5,274C 42.5958,271.633 47.9292,268.3 52.5,264C 47.3605,260.593 42.0271,257.427 36.5,254.5C 34.566,252.276 32.8994,249.942 31.5,247.5C 32.9918,242.847 35.4918,238.847 39,235.5C 43.3202,240.124 46.6535,245.457 49,251.5C 54.5713,255.398 60.4046,258.898 66.5,262C 67.8602,263.938 67.5268,265.604 65.5,267C 60.4135,269.96 55.2469,272.794 50,275.5C 46.9597,281.082 43.793,286.582 40.5,292C 39.0563,292.781 37.723,292.614 36.5,291.5C 34.8068,288.114 33.1401,284.78 31.5,281.5 Z"/></g>
<g><path style="opacity:0.966" fill="#fee359" d="M 31.5,247.5 C 32.8994,249.942 34.566,252.276 36.5,254.5C 42.0271,257.427 47.3605,260.593 52.5,264C 47.9292,268.3 42.5958,271.633 36.5,274C 34.6991,276.443 33.0324,278.943 31.5,281.5C 30.0666,279.481 28.7332,277.314 27.5,275C 22.3413,272.588 17.3413,269.921 12.5,267C 10.4732,265.604 10.1398,263.938 11.5,262C 16.6587,259.588 21.6587,256.921 26.5,254C 28.5503,252.035 30.217,249.868 31.5,247.5 Z"/></g>
<g><path style="opacity:0.99" fill="#463b84" d="M 406.5,263.5 C 410.53,274.27 409.364,284.604 403,294.5C 383.41,313.789 383.744,332.789 404,351.5C 411.333,363.167 411.333,374.833 404,386.5C 398.9,391.597 394.567,397.264 391,403.5C 388.401,410.024 387.901,416.691 389.5,423.5C 378.679,421.461 368.012,418.795 357.5,415.5C 356.661,409.218 358.161,403.552 362,398.5C 382.623,378.802 382.623,359.136 362,339.5C 360.454,336.408 358.954,333.408 357.5,330.5C 362.423,319.023 366.423,307.357 369.5,295.5C 375.669,289.207 378.336,281.541 377.5,272.5C 381.042,272.813 384.375,272.479 387.5,271.5C 394.685,270.738 401.018,268.071 406.5,263.5 Z"/></g>
<g><path style="opacity:0.994" fill="#6354b1" d="M 104.5,264.5 C 110.29,268.209 116.623,270.542 123.5,271.5C 128.64,272.488 133.974,272.821 139.5,272.5C 139.19,275.713 139.523,278.713 140.5,281.5C 144.235,325.202 165.235,357.535 203.5,378.5C 203.938,386.943 203.438,395.277 202,403.5C 196.306,405.644 190.472,407.31 184.5,408.5C 179.288,409.467 174.288,410.8 169.5,412.5C 153.769,415.968 138.102,419.634 122.5,423.5C 125.078,413.625 123.244,404.625 117,396.5C 104.499,386.171 100.499,373.171 105,357.5C 108.934,350.633 113.601,344.3 119,338.5C 124.166,329.169 124.833,319.502 121,309.5C 116.333,303.5 111.667,297.5 107,291.5C 103.392,282.785 102.559,273.785 104.5,264.5 Z"/></g>
<g><path style="opacity:1" fill="#ab81ab" d="M 123.5,271.5 C 129.167,271.5 134.833,271.5 140.5,271.5C 140.5,274.833 140.5,278.167 140.5,281.5C 139.523,278.713 139.19,275.713 139.5,272.5C 133.974,272.821 128.64,272.488 123.5,271.5 Z"/></g>
<g><path style="opacity:1" fill="#a0769d" d="M 370.5,271.5 C 376.167,271.5 381.833,271.5 387.5,271.5C 384.375,272.479 381.042,272.813 377.5,272.5C 375.5,272.5 373.5,272.5 371.5,272.5C 371.81,275.713 371.477,278.713 370.5,281.5C 370.5,278.167 370.5,274.833 370.5,271.5 Z"/></g>
<g><path style="opacity:1" fill="#6454b0" d="M 377.5,272.5 C 378.336,281.541 375.669,289.207 369.5,295.5C 369.669,290.819 370.002,286.152 370.5,281.5C 371.477,278.713 371.81,275.713 371.5,272.5C 373.5,272.5 375.5,272.5 377.5,272.5 Z"/></g>
<g><path style="opacity:0.967" fill="#fed403" d="M 448.5,354.5 C 450.438,350.808 452.771,347.308 455.5,344C 461.991,340.922 468.325,337.588 474.5,334C 476.585,332.959 478.252,331.459 479.5,329.5C 478.252,327.541 476.585,326.041 474.5,325C 468.009,321.922 461.675,318.588 455.5,315C 452.771,311.692 450.438,308.192 448.5,304.5C 450.857,298.951 453.857,293.785 457.5,289C 458.833,288.333 460.167,288.333 461.5,289C 465.793,296.419 469.96,303.919 474,311.5C 481.754,316.963 489.921,321.797 498.5,326C 501.167,328.333 501.167,330.667 498.5,333C 489.921,337.203 481.754,342.037 474,347.5C 469.96,355.081 465.793,362.581 461.5,370C 459.299,370.825 457.466,370.325 456,368.5C 453.233,363.965 450.733,359.299 448.5,354.5 Z"/></g>
<g><path style="opacity:0.975" fill="#fee459" d="M 448.5,304.5 C 450.438,308.192 452.771,311.692 455.5,315C 461.675,318.588 468.009,321.922 474.5,325C 476.585,326.041 478.252,327.541 479.5,329.5C 478.252,331.459 476.585,332.959 474.5,334C 468.325,337.588 461.991,340.922 455.5,344C 452.771,347.308 450.438,350.808 448.5,354.5C 446.65,351.313 444.65,348.147 442.5,345C 434.833,340.833 427.167,336.667 419.5,332.5C 418.167,330.5 418.167,328.5 419.5,326.5C 427.167,322.333 434.833,318.167 442.5,314C 444.65,310.853 446.65,307.687 448.5,304.5 Z"/></g>
<g><path style="opacity:1" fill="#fe54b7" d="M 227.5,312.5 C 233.489,313.882 239.489,315.382 245.5,317C 257.683,318.275 269.517,316.775 281,312.5C 285.734,313.067 288.234,315.734 288.5,320.5C 288.444,323.111 287.444,325.278 285.5,327C 268.17,334.255 250.503,335.255 232.5,330C 225.063,328.914 221.897,324.747 223,317.5C 224.025,315.313 225.525,313.646 227.5,312.5 Z"/></g>
<g><path style="opacity:1" fill="#6354b0" d="M 357.5,330.5 C 358.954,333.408 360.454,336.408 362,339.5C 382.623,359.136 382.623,378.802 362,398.5C 358.161,403.552 356.661,409.218 357.5,415.5C 352.107,414.818 346.773,413.818 341.5,412.5C 336.56,411.015 331.56,409.681 326.5,408.5C 320.444,407.529 314.611,405.862 309,403.5C 307.562,395.277 307.062,386.943 307.5,378.5C 328.402,366.932 345.068,350.932 357.5,330.5 Z"/></g>
<g><path style="opacity:1" fill="#feac9b" d="M 203.5,378.5 C 213.302,383.434 223.635,386.767 234.5,388.5C 259.778,392.985 284.111,389.652 307.5,378.5C 307.062,386.943 307.562,395.277 309,403.5C 314.611,405.862 320.444,407.529 326.5,408.5C 322.975,417.882 318.141,426.549 312,434.5C 304.851,441.502 297.351,447.835 289.5,453.5C 288.527,453.013 287.527,452.513 286.5,452C 276.172,451.5 265.839,451.334 255.5,451.5C 244.086,451.189 232.752,451.523 221.5,452.5C 203.545,442.607 191.211,427.94 184.5,408.5C 190.472,407.31 196.306,405.644 202,403.5C 203.438,395.277 203.938,386.943 203.5,378.5 Z"/></g>
<g><path style="opacity:1" fill="#f8f4f6" d="M 184.5,408.5 C 191.211,427.94 203.545,442.607 221.5,452.5C 217.5,456.167 213.5,459.833 209.5,463.5C 190.254,451.241 176.921,434.241 169.5,412.5C 174.288,410.8 179.288,409.467 184.5,408.5 Z"/></g>
<g><path style="opacity:1" fill="#f9f5f6" d="M 326.5,408.5 C 331.56,409.681 336.56,411.015 341.5,412.5C 334.067,434.591 320.401,451.591 300.5,463.5C 296.833,460.167 293.167,456.833 289.5,453.5C 297.351,447.835 304.851,441.502 312,434.5C 318.141,426.549 322.975,417.882 326.5,408.5 Z"/></g>
<g><path style="opacity:0.996" fill="#feab9b" d="M 169.5,412.5 C 176.921,434.241 190.254,451.241 209.5,463.5C 194.465,479.2 179.798,495.2 165.5,511.5C 127.5,511.5 89.5,511.5 51.5,511.5C 47.5751,509.174 45.2418,505.674 44.5,501C 46.2918,488.833 48.1252,476.667 50,464.5C 54.1957,450.969 62.6957,441.136 75.5,435C 90.9867,430.378 106.653,426.545 122.5,423.5C 138.102,419.634 153.769,415.968 169.5,412.5 Z"/></g>
<g><path style="opacity:1" fill="#feab9b" d="M 341.5,412.5 C 346.773,413.818 352.107,414.818 357.5,415.5C 368.012,418.795 378.679,421.461 389.5,423.5C 393.197,424.008 396.864,424.674 400.5,425.5C 414.433,432.948 423.933,444.282 429,459.5C 431.324,472.095 433.158,484.761 434.5,497.5C 434.962,504.613 431.962,509.28 425.5,511.5C 398.833,511.5 372.167,511.5 345.5,511.5C 345.631,510.761 345.464,510.094 345,509.5C 329.6,494.602 314.767,479.269 300.5,463.5C 320.401,451.591 334.067,434.591 341.5,412.5 Z"/></g>
<g><path style="opacity:0.987" fill="#fc9483" d="M 400.5,425.5 C 412.251,428.219 423.918,431.386 435.5,435C 448.304,441.136 456.804,450.969 461,464.5C 462.875,476.667 464.708,488.833 466.5,501C 465.758,505.674 463.425,509.174 459.5,511.5C 448.167,511.5 436.833,511.5 425.5,511.5C 431.962,509.28 434.962,504.613 434.5,497.5C 433.158,484.761 431.324,472.095 429,459.5C 423.933,444.282 414.433,432.948 400.5,425.5 Z"/></g>
<g><path style="opacity:1" fill="#fe92d2" d="M 255.5,451.5 C 262.071,456.564 268.237,462.231 274,468.5C 287.705,482.703 301.205,497.036 314.5,511.5C 264.833,511.5 215.167,511.5 165.5,511.5C 179.798,495.2 194.465,479.2 209.5,463.5C 213.5,459.833 217.5,456.167 221.5,452.5C 232.752,451.523 244.086,451.189 255.5,451.5 Z"/></g>
<g><path style="opacity:1" fill="#fe50b7" d="M 255.5,451.5 C 265.839,451.334 276.172,451.5 286.5,452C 287.527,452.513 288.527,453.013 289.5,453.5C 293.167,456.833 296.833,460.167 300.5,463.5C 314.767,479.269 329.6,494.602 345,509.5C 345.464,510.094 345.631,510.761 345.5,511.5C 335.167,511.5 324.833,511.5 314.5,511.5C 301.205,497.036 287.705,482.703 274,468.5C 268.237,462.231 262.071,456.564 255.5,451.5 Z"/></g>
</svg>
